# xmcd
#
# Track frame offsets:
#	150
#	18684
#	34075
#	48627
#	63344
#	77506
#	107349
#	125682
#	142013
#	159012
#	176108
#	194616
#	211574
#	228508
#	244260
#	258283
#
# Disc length: 3658 seconds
#
# Revision: 1
# Processed by: cddbd v1.5.1PL0 Copyright (c) Steve Scherf et al.
# Submitted via: audiograbber 1.82.02
#
DISCID=d90e4810
DTITLE=Fatback Band, The - Hustle! The Ultimate Fatback 1969 - 1984 CD!
DYEAR=1900
DGENRE=Funk
TTITLE0=I Found Loving
TTITLE1=Spanish Hustle
TTITLE2=(Are You Ready) Do The Bus Stop
TTITLE3=Yum Yum (Gimme Some)
TTITLE4=Street Dance
TTITLE5=Party Time
TTITLE6=Night Fever
TTITLE7=Take It Any Way You Want It
TTITLE8=Backstrokin'
TTITLE9=I Like Girls
TTITLE10=King Tim III (Personauty Jock)
TTITLE11=Gotta Get My Hands On Some Money
TTITLE12=On The Floor
TTITLE13=Double Dutch
TTITLE14=Keep On Steppin'
TTITLE15=The Girl Is (Fine So Fine)
EXTD=
EXTT0=
EXTT1=
EXTT2=
EXTT3=
EXTT4=
EXTT5=
EXTT6=
EXTT7=
EXTT8=
EXTT9=
EXTT10=
EXTT11=
EXTT12=
EXTT13=
EXTT14=
EXTT15=
PLAYORDER=
